<?xml version="1.0" standalone="no"?><!DOCTYPE svg PUBLIC "-//W3C//DTD SVG 1.1//EN" "http://www.w3.org/Graphics/SVG/1.1/DTD/svg11.dtd"><svg t="1560568089697" class="icon" style="" viewBox="0 0 1024 1024" version="1.1" xmlns="http://www.w3.org/2000/svg" p-id="1063" xmlns:xlink="http://www.w3.org/1999/xlink" width="200" height="200"><defs><style type="text/css"></style></defs><path d="M0 1024V0h1024v1024H0zM72 68v884h884V68H72z" fill="#5F84B3" p-id="1064"></path><path d="M451.088 756.832H182.48V299.1h97.516v377.944h171.096v79.788zM891.088 756.832H778.8l-71.808-119.088c-14.776-24.624-26.892-40.484-36.344-47.576-9.456-7.092-19.504-10.64-30.14-10.64h-29.552v177.3H513.44V299.1h160.456c108.94 0 163.412 41.368 163.412 124.108 0 31.128-9.112 57.824-27.332 80.084-18.224 22.264-43.292 37.924-75.204 46.984v1.18c21.08 7.092 44.42 30.34 70.032 69.74l86.284 135.636z m-280.132-383.564v131.792h47.872c22.848 0 41.224-6.648 55.112-19.944 13.888-13.3 20.832-29.892 20.832-49.792 0-41.368-24.724-62.056-74.168-62.056h-49.648z" fill="#5F84B3" p-id="1065"></path></svg>